<svg width="25" height="25" viewBox="0 0 25 25" fill="none" xmlns="http://www.w3.org/2000/svg">
<path d="M12.685 24.0895C6.07 24.0895 0.684998 18.7045 0.684998 12.0895C0.684998 5.47448 6.07 0.0894775 12.685 0.0894775C19.3 0.0894775 24.685 5.47448 24.685 12.0895C24.685 18.7045 19.3 24.0895 12.685 24.0895ZM22.805 13.7315C22.455 13.6215 19.635 12.7785 16.421 13.2935C17.761 16.9775 18.308 19.9775 18.413 20.6015C20.713 19.0465 22.349 16.5815 22.808 13.7315H22.805ZM16.69 21.5395C16.537 20.6395 15.94 17.5075 14.5 13.7695L14.434 13.7895C8.644 15.8045 6.574 19.8145 6.394 20.1895C8.124 21.5475 10.314 22.3555 12.684 22.3555C14.104 22.3555 15.454 22.0655 16.684 21.5415L16.69 21.5395ZM5.07 18.9595C5.302 18.5595 8.115 13.9045 13.402 12.1945C13.537 12.1495 13.672 12.1105 13.807 12.0745C13.547 11.4895 13.267 10.9075 12.975 10.3345C7.855 11.8645 2.891 11.7995 2.441 11.7895L2.437 12.1015C2.437 14.7345 3.435 17.1385 5.071 18.9565L5.07 18.9595ZM2.65 10.0045C3.11 10.0125 7.333 10.0305 12.127 8.75648C10.429 5.73848 8.597 3.19848 8.327 2.82848C5.459 4.17848 3.317 6.81848 2.651 9.99848L2.65 10.0045ZM10.285 2.14148C10.567 2.52148 12.43 5.05548 14.107 8.14148C17.752 6.77648 19.297 4.70148 19.48 4.43948C17.67 2.82948 15.29 1.85348 12.685 1.85348C11.86 1.85348 11.055 1.95348 10.285 2.13848V2.14148ZM20.62 5.62448C20.402 5.91448 18.685 8.11748 14.896 9.66448C15.136 10.1545 15.366 10.6495 15.576 11.1505C15.656 11.3305 15.726 11.5105 15.796 11.6805C19.206 11.2505 22.596 11.9405 22.936 12.0105C22.916 9.59048 22.056 7.37048 20.626 5.63048L20.62 5.62448Z" fill="#1D1D1F"/>
</svg>
