<svg width="17" height="25" viewBox="0 0 17 25" fill="none" xmlns="http://www.w3.org/2000/svg">
<path d="M12.195 9.07048H7.607V0.0894775H12.195C14.671 0.0894775 16.685 2.10348 16.685 4.57948C16.685 7.05548 14.671 9.07048 12.195 9.07048ZM9.078 7.59948H12.195C13.86 7.59948 15.214 6.24448 15.214 4.58048C15.214 2.91648 13.859 1.56148 12.195 1.56148H9.078V7.59948ZM9.078 9.07048H4.491C2.015 9.07048 0.000999928 7.05648 0.000999928 4.58048C0.000999928 2.10448 2.015 0.0894775 4.491 0.0894775H9.079V9.07048H9.078ZM4.491 1.56048C2.826 1.56048 1.472 2.91548 1.472 4.57948C1.472 6.24348 2.826 7.59948 4.491 7.59948H7.608V1.56048H4.491ZM9.078 16.5795H4.491C2.015 16.5795 0.000999928 14.5655 0.000999928 12.0895C0.000999928 9.61348 2.015 7.59948 4.491 7.59948H9.079V16.5795H9.078ZM4.491 9.07048C2.826 9.07048 1.472 10.4255 1.472 12.0895C1.472 13.7535 2.827 15.1085 4.491 15.1085H7.608V9.07048H4.491ZM4.515 24.0895C2.026 24.0895 0 22.0755 0 19.5995C0 17.1235 2.014 15.1095 4.49 15.1095H9.078V19.5505C9.078 22.0535 7.031 24.0895 4.515 24.0895ZM4.491 16.5795C3.69064 16.5805 2.92336 16.8989 2.35741 17.4649C1.79147 18.0308 1.47306 18.7981 1.472 19.5985C1.472 21.2635 2.837 22.6175 4.516 22.6175C6.221 22.6175 7.609 21.2415 7.609 19.5495V16.5795H4.491ZM12.195 16.5795H12.097C9.621 16.5795 7.607 14.5655 7.607 12.0895C7.607 9.61348 9.621 7.59948 12.097 7.59948H12.195C14.671 7.59948 16.685 9.61348 16.685 12.0895C16.685 14.5655 14.671 16.5795 12.195 16.5795ZM12.098 9.07048C10.433 9.07048 9.079 10.4255 9.079 12.0895C9.079 13.7535 10.434 15.1085 12.098 15.1085H12.196C13.861 15.1085 15.215 13.7535 15.215 12.0895C15.215 10.4255 13.859 9.07048 12.195 9.07048H12.098Z" fill="#1D1D1F"/>
</svg>
