<svg width="25" height="25" viewBox="0 0 25 25" fill="none" xmlns="http://www.w3.org/2000/svg">
<path d="M21.132 20.5415H17.578V14.9725C17.578 13.6445 17.551 11.9355 15.726 11.9355C13.873 11.9355 13.59 13.3805 13.59 14.8745V20.5415H10.036V9.08948H13.45V10.6505H13.496C13.973 9.75048 15.133 8.80048 16.866 8.80048C20.467 8.80048 21.133 11.1705 21.133 14.2555L21.132 20.5415ZM6.022 7.52248C4.878 7.52248 3.959 6.59648 3.959 5.45748C3.959 4.31948 4.879 3.39448 6.022 3.39448C7.162 3.39448 8.086 4.31948 8.086 5.45748C8.086 6.59648 7.161 7.52248 6.022 7.52248ZM7.804 20.5415H4.24V9.08948H7.804V20.5415ZM22.91 0.0894775H2.456C1.477 0.0894775 0.684998 0.863478 0.684998 1.81848V22.3605C0.684998 23.3165 1.477 24.0895 2.456 24.0895H22.907C23.885 24.0895 24.685 23.3165 24.685 22.3605V1.81848C24.685 0.863478 23.885 0.0894775 22.907 0.0894775H22.91Z" fill="#1D1D1F"/>
</svg>
