<svg width="22" height="21" viewBox="0 0 22 21" fill="none" xmlns="http://www.w3.org/2000/svg">
<path d="M12.9941 20.7418C12.0859 20.7418 11.7832 20.0192 11.4902 19.0328L9.9375 13.8766C9.75195 13.2223 9.78125 12.8903 10.1621 12.4899L20.1328 1.73792C20.25 1.61096 20.2402 1.46448 20.1426 1.36682C20.0449 1.27893 19.8984 1.2594 19.7715 1.37659L9.05859 11.3864C8.63867 11.777 8.28711 11.7965 7.66211 11.6012L2.38867 9.99963C1.45117 9.71643 0.767578 9.4137 0.767578 8.51526C0.767578 7.80237 1.40234 7.30432 2.22266 6.99182L19.0195 0.556274C19.4688 0.380493 19.8691 0.282837 20.2012 0.282837C20.8359 0.282837 21.2266 0.673462 21.2266 1.30823C21.2266 1.64026 21.1289 2.04065 20.9531 2.48987L14.5566 19.1989C14.1953 20.1364 13.6973 20.7418 12.9941 20.7418Z" fill="white"/>
</svg>
