<svg width="23" height="24" viewBox="0 0 23 24" fill="none" xmlns="http://www.w3.org/2000/svg">
<path d="M19.7469 4.4891L7.7867 1.5071C6.54229 1.19683 5.28199 1.9541 4.97173 3.1985L1.56183 16.8749C1.25156 18.1193 2.00883 19.3796 3.25323 19.6898L15.2134 22.6718C16.4578 22.9821 17.7181 22.2248 18.0284 20.9804L21.4383 7.30407C21.7485 6.05967 20.9913 4.79936 19.7469 4.4891Z" stroke="#1D1D1F"/>
<path d="M18.4116 8.14474L7.30623 5.37585C7.0545 5.31309 6.79955 5.46627 6.73679 5.718L6.58955 6.30854C6.52679 6.56027 6.67998 6.81521 6.93171 6.87798L18.0371 9.64686C18.2888 9.70963 18.5438 9.55644 18.6065 9.30471L18.7538 8.71418C18.8165 8.46245 18.6634 8.2075 18.4116 8.14474Z" fill="#232224"/>
<path d="M17.5672 11.655L6.46184 8.8861C6.21011 8.82334 5.95516 8.97653 5.8924 9.22826L5.74516 9.81879C5.6824 10.0705 5.83559 10.3255 6.08732 10.3882L17.1927 13.1571C17.4444 13.2199 17.6994 13.0667 17.7622 12.815L17.9094 12.2244C17.9722 11.9727 17.819 11.7178 17.5672 11.655Z" fill="#232224"/>
<path d="M10.6865 13.4452L5.58955 12.1744C5.33783 12.1117 5.08288 12.2649 5.02012 12.5166L4.87288 13.1071C4.81012 13.3589 4.9633 13.6138 5.21503 13.6766L10.3119 14.9474C10.5637 15.0101 10.8186 14.8569 10.8814 14.6052L11.0286 14.0147C11.0914 13.7629 10.9382 13.508 10.6865 13.4452Z" fill="#232224"/>
</svg>
